# xmcd
#
# Track frame offsets: 
#        150
#        17900
#        38082
#        58362
#        75380
#        95245
#        117987
#        137650
#        157025
#        175540
#        192140
#        213717
#        239180
#
# Disc length: 3459 seconds
#
# Revision: 6
# Processed by: cddbd v1.5.2PL0 Copyright (c) Steve Scherf et al.
# Submitted via: ExactAudioCopyFreeDBPlugin 1.0
#
DISCID=bb0d810d
DTITLE=Mýa - Mýa
DYEAR=1998
DGENRE=R&B
TTITLE0=What Cha Say
TTITLE1=Movin' On
TTITLE2=Baby It's Yours
TTITLE3=Keep on Lovin' Me
TTITLE4=It's All About Me (feat. SisQó)
TTITLE5=If You Died I Wouldn't Cry Cause You Never Loved Me Anyway
TTITLE6=We're Gonna Make Ya Dance
TTITLE7=If You Were Mine
TTITLE8=Bye Bye (feat. Missy Elliott)
TTITLE9=Anytime You Want Me
TTITLE10=Don't Be Afraid
TTITLE11=My First Night With You
TTITLE12=Movin' On (Remix) (feat. Silkk the Shocker)
EXTD=ID3G:   0
EXTT0=
EXTT1=
EXTT2=
EXTT3=
EXTT4=
EXTT5=
EXTT6=
EXTT7=
EXTT8=
EXTT9=
EXTT10=
EXTT11=
EXTT12=
PLAYORDER=
